<?xml version="1.0" encoding="utf-8"?>
<svg viewBox="19.159236907958984 13.381997108459473 61.6812629699707 73.23600769042969" width="61.6812629699707" height="73.23600769042969" xmlns="http://www.w3.org/2000/svg">
  <path d="M32.76,74.302c5.746,0.011,11.494,0.003,17.24,0.004c5.746-0.001,11.494,0.007,17.24-0.004  c8.883-0.016,15.001-7.548,13.323-16.288c-2.286-11.899-4.515-23.81-6.746-35.719c-0.963-5.139-5.183-8.882-10.391-8.913H36.573  c-5.207,0.03-9.427,3.773-10.39,8.913c-2.233,11.909-4.46,23.82-6.746,35.719C17.758,66.754,23.877,74.287,32.76,74.302z   M72.449,62.291c-0.008,2.627-2.096,4.671-4.748,4.646c-2.611-0.023-4.656-2.14-4.615-4.781c0.038-2.572,2.119-4.604,4.702-4.594  C70.424,57.572,72.455,59.633,72.449,62.291z M41.855,18.821h16.29c1.32,0,2.391,1.07,2.391,2.391c0,1.32-1.07,2.391-2.391,2.391  h-16.29c-1.32,0-2.39-1.071-2.39-2.391C39.465,19.891,40.535,18.821,41.855,18.821z M29.538,47.66  c0.781-4.147,1.633-8.281,2.46-12.419c0.235-1.177,0.473-2.354,0.737-3.525c0.395-1.745,1.27-2.408,3.078-2.474h28.373  c1.807,0.065,2.682,0.729,3.078,2.474c0.265,1.171,0.501,2.348,0.737,3.525c0.827,4.138,1.679,8.272,2.46,12.419  c0.435,2.306-0.679,4.497-3.039,4.497H32.578C30.217,52.157,29.104,49.966,29.538,47.66z M32.212,57.562  c2.583-0.011,4.665,2.021,4.703,4.594c0.04,2.642-2.004,4.758-4.617,4.781c-2.652,0.024-4.74-2.019-4.747-4.646  C27.545,59.633,29.575,57.572,32.212,57.562z M60.098,76.657l2.121,1.993H37.782l2.204-1.993h-7.079l-11.129,9.961h7.102l3.61-3.231  h35.02l3.609,3.231h7.102l-11.127-9.961H60.098z" transform="matrix(1, 0, 0, 1, 0, 0)"/>
</svg>