<?xml version="1.0" encoding="utf-8"?>
<svg viewBox="21.777002334594727 13.413999557495117 56.444000244140625 73.1719970703125" width="56.444000244140625" height="73.1719970703125" xmlns="http://www.w3.org/2000/svg">
  <path d="M66.959,76.506h1.672c4.359,0,7.893-3.534,7.893-7.893V21.307c0-4.359-3.535-7.893-7.893-7.893H31.368  c-4.36,0-7.893,3.534-7.893,7.893v47.306c0,4.359,3.534,7.893,7.893,7.893h1.672l-11.263,10.08h7.102l3.61-3.23h35.021l3.609,3.23  h7.102L66.959,76.506z M65.804,71.639c-2.144,0-3.88-1.737-3.88-3.881c0-2.145,1.735-3.881,3.88-3.881  c2.144,0,3.882,1.736,3.882,3.881C69.686,69.901,67.947,71.639,65.804,71.639z M41.167,16.356h17.665c1.199,0,2.17,0.973,2.17,2.17  c0,1.199-0.971,2.171-2.17,2.171H41.167c-1.198,0-2.17-0.972-2.17-2.171C38.997,17.329,39.969,16.356,41.167,16.356z M27.421,47.692  v-19.87c0-2.18,1.767-3.947,3.947-3.947h37.265c2.179,0,3.944,1.766,3.944,3.947v19.87c0,2.18-1.765,3.946-3.944,3.946H31.368  C29.188,51.639,27.421,49.872,27.421,47.692z M30.315,67.758c0-2.143,1.737-3.881,3.882-3.881c2.142,0,3.879,1.736,3.879,3.881  c0,2.144-1.737,3.881-3.879,3.881C32.052,71.639,30.315,69.9,30.315,67.758z M37.781,78.619l2.336-2.113h19.853l2.248,2.113H37.781z  " transform="matrix(1, 0, 0, 1, 0, 0)"/>
</svg>